<?xml version="1.0" encoding="UTF-8" standalone="no"?>
<!-- Created with Inkscape (http://www.inkscape.org/) -->

<svg
   width="512"
   height="512"
   viewBox="0 0 135.46666 135.46667"
   version="1.1"
   id="svg1"
   inkscape:version="1.4 (86a8ad7, 2024-10-11)"
   sodipodi:docname="favicon.svg"
   xmlns:inkscape="http://www.inkscape.org/namespaces/inkscape"
   xmlns:sodipodi="http://sodipodi.sourceforge.net/DTD/sodipodi-0.dtd"
   xmlns="http://www.w3.org/2000/svg"
   xmlns:svg="http://www.w3.org/2000/svg">
  <sodipodi:namedview
     id="namedview1"
     pagecolor="#505050"
     bordercolor="#ffffff"
     borderopacity="1"
     inkscape:showpageshadow="0"
     inkscape:pageopacity="0"
     inkscape:pagecheckerboard="1"
     inkscape:deskcolor="#505050"
     inkscape:document-units="mm"
     inkscape:zoom="1.4142136"
     inkscape:cx="381.48411"
     inkscape:cy="265.87215"
     inkscape:window-width="2880"
     inkscape:window-height="1496"
     inkscape:window-x="-12"
     inkscape:window-y="-12"
     inkscape:window-maximized="1"
     inkscape:current-layer="layer1" />
  <defs
     id="defs1" />
  <g
     inkscape:label="Layer 1"
     inkscape:groupmode="layer"
     id="layer1">
    <path
       id="path4"
       style="font-weight:bold;font-size:170.192px;font-family:Roboto;-inkscape-font-specification:'Roboto Bold';text-align:center;letter-spacing:2.45469px;text-anchor:middle;fill:#9dac93;fill-opacity:1;stroke:#9dac93;stroke-width:8.0936;stroke-linecap:round;stroke-linejoin:round;stroke-opacity:1;paint-order:markers stroke fill"
       d="M 15.262199,17.865038 V 48.48214 c -2.346039,1.795155 -4.965062,3.374608 -7.8604903,4.736034 v 6.637504 c 2.1362631,-0.788382 4.5393353,-1.970613 7.2096613,-3.547376 0.227925,-0.133313 0.430359,-0.26672 0.650829,-0.400034 V 117.60163 H 35.81219 V 90.338323 l -2.055,-46.99082 26.852306,74.254127 H 74.720331 L 95.436724,60.406856 c 0.03072,0.04465 0.05725,0.09165 0.08869,0.135888 1.176733,1.656156 2.928771,2.964815 5.188506,3.967436 l -0.0372,0.848223 c -2.84011,0.949461 -5.079934,2.509079 -6.715691,4.682632 -1.831084,2.441441 -2.746355,5.4806 -2.746355,9.11733 0,4.882875 1.691198,8.964916 5.073606,12.245601 1.001686,0.964032 2.108495,1.767431 3.297527,2.445973 V 117.60163 H 120.20448 V 93.567675 c 0.99749,-0.61701 1.92735,-1.336479 2.78689,-2.163709 3.38241,-3.255247 5.07361,-7.27373 5.07361,-12.054882 0,-3.458702 -0.90257,-6.43383 -2.70821,-8.926134 -1.28473,-1.798601 -3.00667,-3.234019 -5.15229,-4.317405 v -2.370163 c 1.46672,-0.87173 2.6402,-1.921342 3.51162,-3.154494 1.37331,-1.932807 2.06025,-4.196527 2.06025,-6.790557 0,-4.069065 -1.48781,-7.515017 -4.46331,-10.337933 -0.35529,-0.340101 -0.72608,-0.656963 -1.10856,-0.956456 V 17.865038 H 93.215323 l -9.432017,26.774111 -6.95076,-0.48252 c -1.159136,-1.28419 -2.4774,-2.347987 -3.987461,-3.145435 -2.263415,-1.22072 -4.895793,-1.831381 -7.896727,-1.831381 -4.069062,0 -7.451458,1.093723 -10.147213,3.280846 -0.05786,0.0474 -0.107749,0.10618 -0.164973,0.154483 l -3.851574,-0.267484 -8.67057,-24.48262 z m 86.100641,31.779059 -0.31087,7.118593 c -0.37326,-1.02621 -0.56739,-2.154032 -0.56739,-3.391941 0,-1.354172 0.29896,-2.593979 0.87826,-3.726652 z m -0.9965,22.816688 -0.554042,12.694268 c -0.05231,-0.09466 -0.117547,-0.177701 -0.167362,-0.274636 -0.915537,-1.831084 -1.373176,-3.725672 -1.373176,-5.683909 0,-2.598543 0.706471,-4.839599 2.09458,-6.735723 z m 19.83813,2.40926 c 0.56018,1.373786 0.84155,2.891798 0.84155,4.555326 0,1.664268 -0.28316,3.176847 -0.84155,4.541978 z m -56.364667,4.336953 c 1.649673,3.603151 3.165385,6.870029 4.419916,9.501153 l -0.51828,1.470922 c -0.0048,0.0016 -0.0095,0.0031 -0.0143,0.0048 z" />
    <rect
       style="fill:none;fill-opacity:1;stroke:none;stroke-width:0.488241;stroke-linecap:round;stroke-linejoin:round;-inkscape-stroke:none;paint-order:markers stroke fill"
       id="rect2"
       width="124.98971"
       height="124.98971"
       x="5.2384768"
       y="5.2384758" />
    <path
       style="font-weight:bold;font-size:170.192px;font-family:Roboto;-inkscape-font-specification:'Roboto Bold';text-align:center;letter-spacing:2.45469px;text-anchor:middle;fill:#bb8588;fill-opacity:1;stroke-width:8.0936;stroke-linecap:round;stroke-linejoin:round;paint-order:markers stroke fill"
       d="M 42.114256,17.865239 67.733329,90.201445 93.215401,17.865239 H 120.20447 V 117.60153 H 99.585914 V 90.338445 L 101.64092,43.278811 74.720349,117.60153 H 60.609308 L 33.757232,43.347312 35.812238,90.338445 V 117.60153 H 15.262181 V 17.865239 Z"
       id="text2"
       aria-label="M" />
    <path
       style="font-size:84.6748px;font-family:Arial;-inkscape-font-specification:Arial;text-align:center;letter-spacing:1.22127px;text-anchor:middle;fill:#ffffff;fill-opacity:1;stroke-width:4.50727;stroke-linecap:round;stroke-linejoin:round;paint-order:markers stroke fill"
       d="M 28.001246,95.333045 H 21.134697 V 51.577866 q -2.479588,2.365145 -6.523222,4.73029 -4.005487,2.365144 -7.209877,3.547717 v -6.637664 q 5.760272,-2.708472 10.070939,-6.561369 4.310667,-3.852898 6.1036,-7.47691 h 4.425109 z m 18.712815,-27.58064 q 0,-9.918349 2.021817,-15.945654 2.059965,-6.065452 6.065453,-9.346137 4.043634,-3.280684 10.147233,-3.280684 4.501405,0 7.896532,1.83108 3.395128,1.792932 5.607682,5.226208 2.212555,3.395126 3.471423,8.316153 1.258867,4.88288 1.258867,13.199034 0,9.842054 -2.021817,15.907506 -2.021818,6.027305 -6.065452,9.346137 -4.005488,3.280684 -10.147235,3.280684 -8.087268,0 -12.703116,-5.798418 -5.531387,-6.980992 -5.531387,-22.735909 z m 7.057286,0 q 0,13.771247 3.204391,18.348946 3.242537,4.539552 7.972826,4.539552 4.73029,0 7.93468,-4.5777 3.242537,-4.577698 3.242537,-18.310798 0,-13.809394 -3.242537,-18.348946 -3.20439,-4.539553 -8.010974,-4.539553 -4.73029,0 -7.553205,4.005489 -3.547718,5.111763 -3.547718,18.88301 z m 48.086383,-2.74662 q -4.272522,-1.564047 -6.33248,-4.463257 -2.059964,-2.89921 -2.059964,-6.942845 0,-6.103599 4.386959,-10.261676 4.386965,-4.158077 11.673135,-4.158077 7.32433,0 11.78759,4.272519 4.46324,4.234373 4.46324,10.337971 0,3.891046 -2.05995,6.790255 -2.02182,2.861063 -6.1799,4.42511 5.14991,1.678491 7.82024,5.416944 2.70847,3.738455 2.70847,8.926515 0,7.171729 -5.07362,12.05461 -5.07362,4.882878 -13.35163,4.882878 -8.27801,0 -13.35162,-4.882878 -5.073616,-4.921028 -5.073616,-12.245348 0,-5.455091 2.746619,-9.117251 2.784767,-3.700307 7.896527,-5.03547 z m -1.37331,-11.634987 q 0,3.96734 2.55589,6.485075 2.55588,2.517735 6.63766,2.517735 3.96735,0 6.48508,-2.479587 2.55588,-2.517735 2.55588,-6.141748 0,-3.776601 -2.63217,-6.332484 -2.59403,-2.59403 -6.48508,-2.59403 -3.9292,0 -6.52323,2.517736 -2.59403,2.517734 -2.59403,6.027303 z m -2.21255,25.825856 q 0,2.937357 1.373306,5.683977 1.411454,2.746619 4.158084,4.272519 2.74662,1.487753 5.91285,1.487753 4.92104,0 8.12543,-3.166242 3.20439,-3.166242 3.20439,-8.049123 0,-4.959174 -3.31883,-8.201712 -3.28068,-3.242536 -8.23987,-3.242536 -4.84473,0 -8.04912,3.204389 -3.16624,3.204391 -3.16624,8.010975 z"
       id="text1"
       aria-label="108" />
    <path
       id="rect4"
       style="fill:none;stroke-width:0.529167;stroke-linecap:round;stroke-linejoin:round;paint-order:markers stroke fill"
       d="M 145.25626,25.135416 H 280.72292 V 160.60208 H 145.25626 Z" />
  </g>
</svg>
