<?xml version="1.0" encoding="UTF-8" standalone="no"?>
<!-- Created with Inkscape (http://www.inkscape.org/) -->

<svg
   width="512"
   height="512"
   viewBox="0 0 135.46666 135.46667"
   version="1.1"
   id="svg1"
   inkscape:version="1.4 (86a8ad7, 2024-10-11)"
   sodipodi:docname="favicon.svg"
   xmlns:inkscape="http://www.inkscape.org/namespaces/inkscape"
   xmlns:sodipodi="http://sodipodi.sourceforge.net/DTD/sodipodi-0.dtd"
   xmlns="http://www.w3.org/2000/svg"
   xmlns:svg="http://www.w3.org/2000/svg">
  <sodipodi:namedview
     id="namedview1"
     pagecolor="#505050"
     bordercolor="#ffffff"
     borderopacity="1"
     inkscape:showpageshadow="0"
     inkscape:pageopacity="0"
     inkscape:pagecheckerboard="1"
     inkscape:deskcolor="#505050"
     inkscape:document-units="mm"
     inkscape:zoom="1.5546628"
     inkscape:cx="225.77243"
     inkscape:cy="219.9834"
     inkscape:window-width="2880"
     inkscape:window-height="1496"
     inkscape:window-x="-12"
     inkscape:window-y="-12"
     inkscape:window-maximized="1"
     inkscape:current-layer="layer1" />
  <defs
     id="defs1" />
  <g
     inkscape:label="Layer 1"
     inkscape:groupmode="layer"
     id="layer1">
    <rect
       style="fill:none;fill-opacity:1;stroke:none;stroke-width:0.529167;stroke-linecap:round;stroke-linejoin:round;-inkscape-stroke:none;paint-order:markers stroke fill"
       id="rect2"
       width="135.46666"
       height="135.46666"
       x="0"
       y="0" />
    <path
       style="font-weight:bold;font-size:170.192px;font-family:Roboto;-inkscape-font-specification:'Roboto Bold';text-align:center;letter-spacing:2.45469px;text-anchor:middle;fill:#9dac93;fill-opacity:1;stroke-width:8.77203;stroke-linecap:round;stroke-linejoin:round;paint-order:markers stroke fill"
       d="M 39.9668,13.685171 67.733328,92.084778 95.351371,13.685171 H 124.60273 V 121.7816 H 102.25588 V 92.233262 L 104.48314,41.228972 75.306017,121.7816 H 60.012154 L 30.909269,41.303215 33.136531,92.233262 V 121.7816 H 10.863916 V 13.685171 Z"
       id="text2"
       aria-label="M" />
    <path
       style="font-size:84.6748px;font-family:Arial;-inkscape-font-specification:Arial;text-align:center;letter-spacing:1.22127px;text-anchor:middle;fill:#bb8588;stroke-width:4.88508;stroke-linecap:round;stroke-linejoin:round;paint-order:markers stroke fill;fill-opacity:1"
       d="M 24.670802,97.646523 H 17.228681 V 50.223675 q -2.687432,2.563397 -7.070014,5.126794 -4.3412376,2.563397 -7.8142273,3.845096 v -7.19405 q 6.2431125,-2.935503 10.9151103,-7.11136 4.671998,-4.175857 6.615219,-8.103643 h 4.796033 z m 20.28137,-29.892519 q 0,-10.74973 2.191291,-17.282259 2.232636,-6.573873 6.573874,-10.129553 4.382582,-3.55568 10.9978,-3.55568 4.878724,0 8.558439,1.984566 3.679716,1.94322 6.077732,5.664281 2.398017,3.679715 3.762406,9.013235 1.364389,5.292175 1.364389,14.30541 0,10.66704 -2.191291,17.240913 -2.191292,6.532528 -6.573874,10.129553 -4.341237,3.55568 -10.997801,3.55568 -8.765164,0 -13.767923,-6.284457 -5.995042,-7.566156 -5.995042,-24.641689 z m 7.648846,0 q 0,14.925587 3.47299,19.887001 3.514335,4.920068 8.641129,4.920068 5.126795,0 8.599784,-4.961414 3.514335,-4.961413 3.514335,-19.845655 0,-14.966932 -3.514335,-19.887001 -3.472989,-4.920069 -8.682474,-4.920069 -5.126794,0 -8.186333,4.341238 -3.845096,5.540245 -3.845096,20.465832 z m 52.117112,-2.976849 q -4.63066,-1.695149 -6.863292,-4.837378 -2.232636,-3.142229 -2.232636,-7.524811 0,-6.615219 4.754688,-11.121836 4.75469,-4.506618 12.65161,-4.506618 7.93826,0 12.77564,4.630653 4.83737,4.589308 4.83737,11.204526 0,4.217202 -2.23263,7.359431 -2.19129,3.100884 -6.69791,4.796033 5.58159,1.819186 8.47575,5.871007 2.9355,4.051821 2.9355,9.674757 0,7.772882 -5.4989,13.065057 -5.4989,5.292174 -14.47079,5.292174 -8.97189,0 -14.47079,-5.292174 -5.4989,-5.33352 -5.4989,-13.271783 0,-5.912351 2.976848,-9.881482 3.018194,-4.010476 8.558442,-5.457556 z m -1.48843,-12.61026 q 0,4.299892 2.77013,7.02867 2.77012,2.728778 7.19405,2.728778 4.29989,0 7.02867,-2.687433 2.77012,-2.728778 2.77012,-6.656564 0,-4.093166 -2.85281,-6.863289 -2.81147,-2.811468 -7.02867,-2.811468 -4.25855,0 -7.07002,2.728778 -2.81147,2.728778 -2.81147,6.532528 z m -2.39801,27.990644 q 0,3.183573 1.48842,6.160422 1.52977,2.976848 4.50662,4.630653 2.97685,1.612459 6.40849,1.612459 5.33352,0 8.80651,-3.431644 3.47299,-3.431645 3.47299,-8.72382 0,-5.374865 -3.59702,-8.8892 -3.55568,-3.514334 -8.93055,-3.514334 -5.25083,0 -8.72382,3.472989 -3.43164,3.47299 -3.43164,8.682475 z"
       id="text1"
       aria-label="108" />
  </g>
</svg>
